<?xml version="1.0" encoding="UTF-8"?>
<!DOCTYPE svg PUBLIC "-//W3C//DTD SVG 1.1//EN" "http://www.w3.org/Graphics/SVG/1.1/DTD/svg11.dtd">
<!-- Creator: CorelDRAW 2021 (64-Bit) -->
<svg xmlns="http://www.w3.org/2000/svg" xml:space="preserve" width="1.66666in" height="1.66666in" version="1.1" style="shape-rendering:geometricPrecision; text-rendering:geometricPrecision; image-rendering:optimizeQuality; fill-rule:evenodd; clip-rule:evenodd"
viewBox="0 0 1666.66 1666.66"
 xmlns:xlink="http://www.w3.org/1999/xlink"
 xmlns:xodm="http://www.corel.com/coreldraw/odm/2003">
 <defs>
  <style type="text/css">
   <![CDATA[
    .fil0 {fill:black}
    .fil1 {fill:white}
   ]]>
  </style>
 </defs>
 <g id="Layer_x0020_1">
  <metadata id="CorelCorpID_0Corel-Layer"/>
  <g id="_1944509018160">
   <path class="fil0"  d="M923.33 753.33c0,-5.29 33.34,-56.64 43.33,-63.33 68.82,46.08 71.41,190.5 31.98,255.31 -32.05,52.7 -80.15,72.86 -145.2,74.79 -35.9,1.07 -73.96,-0.11 -110.11,-0.11 1.28,-15.31 33.35,-55.09 43.33,-70 66.88,0 156.67,12.61 156.67,-103.33 0,-76.9 -20,-74.94 -20,-93.33zm-233.33 -100l180 0c29.57,0 58.69,14.63 76.67,26.67 -3.83,16.43 -30.57,48.84 -40,66.67 -48.35,-32.38 -71.93,-26.67 -133.33,-26.67l0 83.33 90 0c-2.89,12.4 -13.46,25.75 -20.94,35.73 -24.35,32.5 -7.13,27.61 -69.06,27.61 0,92.88 5.69,58.6 -25.63,111.03 -5.74,9.6 -8.77,13.64 -14.78,21.89 -14.61,20.06 -10.18,17.08 -42.92,17.08l0 -363.33zm-186.67 153.33l0 53.33 3.7 16.3c17.65,141.23 129.93,258.8 269.11,280.89 6.85,1.09 9.9,1.22 17.46,2.54l10.67 2.67c0.41,-0.74 1.67,0.49 2.39,0.94l53.33 0c0.72,-0.46 1.96,-1.7 2.37,-0.96 0.43,0.76 1.86,-0.73 2.46,-0.87 4.21,-0.98 3.53,-0.9 8.41,-1.59 133.83,-18.89 243.67,-110.26 276.79,-236.54l13.29 -63.37 0 -53.33 -1.83 -4.83c-0.2,-0.76 -0.52,-1.76 -0.71,-2.63 -13.3,-60.63 -11.83,-91.63 -60.76,-159.23 -60.6,-83.71 -132,-116.44 -226.97,-133.02l-10.67 -2.67c-0.41,-0.97 -1.67,-0.49 -2.39,-0.94l-53.33 0 -16.3 3.7c-108.36,13.54 -212.44,89.58 -253.69,182.98 -8.12,18.39 -15.11,34.06 -20.74,55.93l-12.61 60.72z"/>
   <path class="fil1" d="M690 1016.66c32.74,0 28.31,2.98 42.92,-17.08 6.01,-8.25 9.04,-12.29 14.78,-21.89 31.32,-52.43 25.63,-18.15 25.63,-111.03 61.93,0 44.72,4.89 69.06,-27.61 7.48,-9.98 18.05,-23.33 20.94,-35.73l-90 0 0 -83.33c61.41,0 84.98,-5.71 133.33,26.67 9.43,-17.82 36.17,-50.23 40,-66.67 -17.98,-12.04 -47.09,-26.67 -76.67,-26.67l-180 0 0 363.33z"/>
   <path class="fil1" d="M923.33 753.33c0,18.4 20,16.43 20,93.33 0,115.94 -89.79,103.33 -156.67,103.33 -9.98,14.91 -42.06,54.69 -43.33,70 36.15,0 74.21,1.17 110.11,0.11 65.06,-1.93 113.15,-22.09 145.2,-74.79 39.43,-64.82 36.84,-209.23 -31.98,-255.31 -9.99,6.69 -43.33,58.04 -43.33,63.33z"/>
  </g>
 </g>
</svg>
